<svg version="1.1" id="Layer_1" xmlns="http://www.w3.org/2000/svg" xmlns:xlink="http://www.w3.org/1999/xlink" x="0px" y="0px"
	 width="100%" viewBox="0 0 1024 208" enable-background="new 0 0 1024 208" xml:space="preserve">
<path fill="#000000" opacity="1.000000" stroke="none" 
	d="
M1025.000000,88.000000 
	C1025.000000,128.318497 1025.000000,168.636993 1025.000000,208.958099 
	C683.666687,208.960693 342.333344,208.960693 1.000000,208.960693 
	C1.000000,194.593369 1.000000,180.265350 1.392739,165.594833 
	C13.092280,166.069641 24.413544,165.463669 35.727375,165.590805 
	C37.571285,165.611542 39.326508,164.917175 39.386154,162.961334 
	C39.570705,156.909622 39.453583,150.848709 39.453583,144.301834 
	C35.547810,145.482193 32.423428,145.540466 29.164253,145.621582 
	C29.643904,143.877609 30.860855,143.230606 31.879332,143.108429 
	C38.575958,142.305115 40.576210,138.408218 39.714542,132.163818 
	C39.237511,128.706833 41.827545,128.631424 44.299637,128.633133 
	C54.624573,128.640228 64.949745,128.586197 75.274323,128.644836 
	C78.137482,128.661102 80.036270,127.757126 81.952568,125.329147 
	C90.052650,115.066170 98.699265,105.233086 106.748322,94.932053 
	C109.810249,91.013474 114.568924,87.869247 114.593208,82.083069 
	C114.650513,68.427727 114.577713,54.771782 114.650665,41.116577 
	C114.664459,38.533920 113.592316,36.693909 111.773201,35.054188 
	C105.117165,29.054581 98.793434,22.634457 91.749527,17.134809 
	C86.856071,13.314164 83.341095,7.818147 77.197861,5.163128 
	C76.901100,4.852055 76.782394,4.727632 76.638123,4.297681 
	C76.408363,2.994769 76.204178,1.997385 76.000000,1.000000 
	C97.687561,1.000000 119.375122,1.000000 141.647064,1.456577 
	C142.281357,5.410344 142.374191,8.907529 142.374680,12.404726 
	C142.381393,60.555664 142.375076,108.706604 142.373993,156.857544 
	C142.373962,158.356918 142.407913,159.856293 142.405090,161.355652 
	C142.399658,164.246582 143.841736,165.617477 146.721985,165.613419 
	C156.551956,165.599594 166.382050,165.591812 176.211929,165.629944 
	C179.043991,165.640930 180.617355,164.506973 180.608353,161.517044 
	C180.585800,154.019714 180.428024,146.515839 180.709457,139.029037 
	C180.788589,136.924194 178.357773,135.907654 179.262543,133.695114 
	C181.804825,127.478241 181.523788,121.475571 177.341660,115.920082 
	C181.832458,114.588943 181.992340,108.213776 177.793274,97.800659 
	C181.913422,98.002541 180.582489,95.004478 180.586929,92.936401 
	C180.644379,66.111946 180.612106,39.287315 180.644562,12.462783 
	C180.649185,8.641718 180.876007,4.820920 181.000000,1.000000 
	C189.687561,1.000000 198.375137,1.000000 207.648163,1.456419 
	C208.279144,37.557411 208.346893,73.201996 208.335907,108.846550 
	C208.334808,112.409882 208.558609,115.821579 210.747787,118.924828 
	C206.362701,122.238541 208.603104,125.405342 211.463745,128.843903 
	C207.878433,129.094452 208.395828,131.378052 208.390747,133.336014 
	C208.367447,142.330856 208.478256,151.327438 208.329681,160.319916 
	C208.266296,164.156647 209.723572,165.734772 213.614334,165.672470 
	C222.773453,165.525803 231.936600,165.644989 241.098022,165.620651 
	C247.255920,165.604279 247.609558,165.259613 247.615509,159.067917 
	C247.635056,138.746048 247.601044,118.424088 247.664291,98.102402 
	C247.670059,96.249352 246.931808,94.133102 249.075394,92.138046 
	C259.264099,100.906349 269.326263,109.751114 279.615265,118.323639 
	C283.409485,121.484856 285.008484,125.010277 284.446259,129.926605 
	C284.032562,133.544128 284.499969,137.253540 284.316040,140.908981 
	C284.165680,143.897278 284.660950,146.407059 288.331970,147.691116 
	C283.664124,151.030609 284.540039,155.355225 284.321289,159.468750 
	C284.085175,163.907867 285.700684,165.836868 290.360443,165.697968 
	C298.681702,165.449905 307.015625,165.635925 315.344269,165.626602 
	C322.550934,165.618530 322.620911,165.561127 322.622223,158.377319 
	C322.631500,108.238922 322.626587,58.100521 322.649933,7.962136 
	C322.651001,5.641370 322.878143,3.320709 323.000000,1.000000 
	C332.020905,1.000000 341.041779,1.000000 350.645752,1.456864 
	C351.228851,46.271622 351.228851,90.629517 351.228851,134.987411 
	C356.993011,128.266708 358.625183,120.127327 362.856812,113.174522 
	C361.498566,118.922890 361.155945,124.887939 358.098206,130.111023 
	C353.672119,137.671402 350.465485,145.551956 351.339539,154.619614 
	C351.582703,157.142548 352.240967,158.287338 355.011505,157.724030 
	C356.847412,157.350739 358.478851,156.705292 360.106415,155.834961 
	C362.932648,154.323700 365.790680,152.811111 370.085571,152.650497 
	C365.452545,157.036087 360.370880,158.458740 355.547089,160.403595 
	C353.967926,161.040283 351.462799,161.324097 351.899231,163.761551 
	C352.338043,166.212280 354.732391,165.603912 356.472565,165.613907 
	C364.636627,165.660782 372.801117,165.628616 380.965454,165.633499 
	C389.613220,165.638657 389.616943,165.642990 389.620087,157.228195 
	C389.626282,140.732880 389.721375,124.236656 389.562775,107.742889 
	C389.525208,103.833847 390.815582,102.291618 394.741791,102.580475 
	C398.056244,102.824310 401.422882,102.861702 404.730286,102.574501 
	C409.089600,102.195953 410.508545,103.810814 410.452698,108.230446 
	C410.235962,125.389435 410.437988,142.553284 410.331757,159.714401 
	C410.305511,163.956802 411.920959,165.762329 416.239319,165.671814 
	C424.400055,165.500748 432.567047,165.644196 440.731201,165.604889 
	C442.158173,165.598007 443.800079,166.041168 445.071533,163.895737 
	C442.133026,159.272552 435.803772,158.009720 432.151733,152.722397 
	C437.995331,154.508499 442.136963,157.240295 446.057617,160.685028 
	C449.184570,163.432434 452.399536,167.335876 458.064575,164.700897 
	C456.045410,159.565231 449.394897,159.369598 447.695251,154.125580 
	C454.510895,154.387482 457.788574,161.292587 464.206329,163.185760 
	C464.418457,158.973633 466.175293,155.046921 462.356232,152.515457 
	C458.362640,149.868332 454.574097,146.777969 449.835785,145.359985 
	C447.628021,144.699310 445.643280,143.575531 444.403961,141.509247 
	C445.101959,140.585663 445.941711,140.735611 446.761749,140.874237 
	C451.808960,141.727448 455.739563,145.029633 460.167511,147.198624 
	C463.890778,149.022400 464.622406,147.743744 464.619415,144.421158 
	C464.615234,139.755844 464.483246,135.085190 464.662445,130.426712 
	C464.839081,125.833504 462.700195,124.029167 458.305328,124.353355 
	C456.979889,124.451111 455.624023,124.223480 454.310699,124.381996 
	C450.021088,124.899773 448.479065,123.263916 448.539642,118.794205 
	C448.765442,102.135353 448.638733,85.471535 448.617493,68.809616 
	C448.609039,62.162605 447.897156,61.593452 441.089935,61.370270 
	C437.240082,61.244045 433.268097,62.119293 429.021240,60.511845 
	C431.908875,57.763443 434.447662,55.444027 436.877441,53.015549 
	C443.278809,46.617516 449.621277,40.355492 460.017273,42.529583 
	C463.408783,43.238846 464.720154,40.938519 464.637848,37.676685 
	C464.545410,34.013496 464.669800,30.345318 464.614746,26.680590 
	C464.544678,22.017937 463.100250,20.727940 458.456390,21.538820 
	C455.426147,22.067944 452.460938,22.936415 447.939423,22.908951 
	C452.534851,19.929144 456.625977,19.831890 460.347748,18.954132 
	C463.669495,18.170708 464.702301,16.609459 464.664703,13.462367 
	C464.615112,9.310171 464.873779,5.154294 465.000000,1.000000 
	C498.687561,1.000000 532.375122,1.000000 566.646240,1.456752 
	C567.278748,22.401720 567.407715,42.890331 567.306274,63.377804 
	C567.286987,67.275993 568.316711,69.874489 571.822754,71.961067 
	C577.381104,75.269035 582.702148,79.005333 587.936401,82.817406 
	C591.197998,85.192833 594.275818,85.918549 598.029846,84.047752 
	C601.203491,82.466217 604.590515,81.312920 608.894592,79.557541 
	C605.862488,84.655182 601.050110,85.149628 597.377380,87.416061 
	C598.385315,89.956520 600.479309,90.962006 602.408813,92.211288 
	C613.553162,99.427002 624.680664,106.669205 635.776184,113.959663 
	C639.648315,116.503860 638.544312,120.538055 638.107605,124.005585 
	C637.636292,127.747704 634.190063,126.293541 631.998962,126.341331 
	C624.340210,126.508369 616.674072,126.304688 609.012390,126.391663 
	C605.816162,126.427948 604.401001,125.128555 604.636047,121.933578 
	C604.733521,120.608734 604.525818,119.259239 604.649109,117.938889 
	C605.034912,113.807343 603.152405,112.277229 599.099426,112.346786 
	C590.273071,112.498268 581.440796,112.478081 572.613892,112.339050 
	C568.712952,112.277611 567.316101,113.939079 567.345520,117.744179 
	C567.455078,131.903046 567.475342,146.064346 567.321960,160.222473 
	C567.276672,164.409607 568.989197,165.717148 573.003052,165.689728 
	C591.992920,165.559982 610.984314,165.653336 629.974731,165.580734 
	C631.601807,165.574493 633.740784,166.404053 634.708435,164.047897 
	C633.712219,160.924713 628.681152,162.333191 628.491943,158.414658 
	C630.117676,157.129578 631.363831,158.196472 632.544373,159.060623 
	C640.276306,164.720261 648.885803,166.827042 658.369019,165.662796 
	C660.010254,165.461304 661.697449,165.648361 663.363037,165.627808 
	C678.569275,165.440079 676.863586,167.619949 676.478088,152.370255 
	C676.227783,142.468109 679.422729,132.061829 672.477844,122.006775 
	C677.064636,122.690857 676.597717,119.982758 676.603821,117.582016 
	C676.616455,112.584488 676.520020,107.583862 676.670227,102.590584 
	C676.758484,99.657730 675.874573,97.740074 673.241089,96.042427 
	C659.289917,87.048859 645.476440,77.841209 631.641052,68.668777 
	C623.474060,63.254311 615.410400,57.682079 607.190002,52.350842 
	C603.299927,49.827972 604.540100,46.150555 604.899597,42.914864 
	C605.282532,39.468891 608.528198,40.733219 610.592163,40.693935 
	C618.418701,40.544987 626.250488,40.694683 634.079224,40.619366 
	C636.877625,40.592438 638.280457,41.385147 638.414124,44.547142 
	C638.689880,51.072151 638.749084,50.802265 644.955261,48.069099 
	C648.959351,46.305725 653.007446,43.611694 659.100159,45.481815 
	C652.363953,47.248463 647.240234,49.813675 642.023315,52.200500 
	C639.004028,53.581894 637.998108,55.390770 638.470703,58.396015 
	C638.967224,61.553062 641.391113,61.608479 643.792236,61.612610 
	C652.954407,61.628372 662.118225,61.525787 671.278076,61.672821 
	C675.074707,61.733765 676.930115,60.379673 676.641052,56.438133 
	C676.507385,54.615665 676.612793,52.774891 676.626282,50.942539 
	C676.748840,34.295010 676.874939,17.647509 677.000000,1.000000 
	C685.687561,1.000000 694.375183,1.000000 703.647949,1.456460 
	C704.276733,10.572686 704.321899,19.232445 704.363281,27.892221 
	C704.393372,34.181026 705.025024,34.682133 711.354187,35.694630 
	C715.291687,36.324528 719.406311,36.968269 723.169006,41.308338 
	C718.545044,40.093975 715.072449,39.558685 711.734192,38.117767 
	C706.126648,35.697330 704.376099,36.860657 704.374451,42.731621 
	C704.363708,81.375710 704.366699,120.019814 704.385986,158.663895 
	C704.389282,165.253525 704.794861,165.620316 711.582764,165.625137 
	C731.404541,165.639221 751.233887,165.324020 771.043945,165.807312 
	C778.102844,165.979507 782.210999,162.876541 785.779114,157.281342 
	C786.123962,156.879837 786.261780,156.719177 786.685059,156.469925 
	C789.553284,155.188553 792.715820,154.328064 789.965271,150.354172 
	C795.039246,150.252274 795.812378,149.782364 798.448242,145.527756 
	C795.970276,141.274261 789.847412,141.873138 787.040833,137.463867 
	C790.523315,135.752151 792.153748,138.362640 794.343933,139.205109 
	C797.512939,140.424133 800.565063,143.990982 804.130127,141.511368 
	C808.050354,138.784775 811.307495,135.113846 814.911133,131.919403 
	C816.933777,130.126419 817.698669,127.996239 817.660950,125.288521 
	C817.544922,116.958191 817.432007,108.619461 817.689880,100.295525 
	C817.836304,95.569313 815.830688,94.223152 811.417236,94.344238 
	C802.924927,94.577248 794.421875,94.398331 785.923340,94.425690 
	C778.882507,94.448349 778.176147,94.971458 778.449646,102.203491 
	C778.654480,107.619392 777.702881,111.994438 773.364929,115.945366 
	C766.843933,121.884491 760.169373,126.342102 750.857178,124.382309 
	C750.219055,124.248016 749.516785,124.287697 748.862976,124.379280 
	C744.197571,125.032784 742.255188,123.341255 742.534912,118.351784 
	C742.916809,111.541618 742.652466,104.692688 742.588684,97.861099 
	C742.555664,94.319313 741.534851,92.277184 737.127991,93.126717 
	C732.527039,94.013649 727.716675,92.981941 722.975098,93.791031 
	C727.054626,91.145905 731.736938,90.879875 736.155823,90.824715 
	C741.295532,90.760582 742.741821,88.826653 742.702026,83.951118 
	C742.525085,62.289547 742.607239,40.625603 742.653625,18.962639 
	C742.666504,12.974874 742.879089,6.987535 743.000000,1.000000 
	C776.354248,1.000000 809.708435,1.000000 843.646973,1.456610 
	C844.278137,4.075795 844.365723,6.238365 844.365967,8.400946 
	C844.372375,58.678837 844.417664,108.956848 844.287842,159.234406 
	C844.275757,163.918640 845.564026,165.876083 850.508118,165.719696 
	C859.821960,165.425079 869.152405,165.555481 878.474182,165.663452 
	C881.994751,165.704254 883.722290,164.476608 883.652405,160.743973 
	C883.524719,153.920685 883.538513,147.091354 883.676208,140.268219 
	C883.729370,137.633835 882.686279,135.821487 880.836304,134.208374 
	C881.158447,133.891632 881.287354,133.764954 881.721252,133.534119 
	C885.132141,128.014526 883.883667,122.707062 881.811951,117.219299 
	C882.116150,116.877182 882.237732,116.740295 882.595337,116.369804 
	C885.209351,108.122734 883.049500,99.957809 883.297729,91.878883 
	C884.146118,64.261864 883.614929,36.602753 883.642639,8.959734 
	C883.645264,6.306372 883.875427,3.653238 884.000000,0.999999 
	C892.687561,1.000000 901.375183,1.000000 910.645874,1.456841 
	C911.278687,8.742298 911.412598,15.571813 911.339966,22.399130 
	C911.306763,25.513483 912.347900,27.160480 915.210022,29.026663 
	C923.187805,34.228413 932.397705,37.767849 938.580627,45.563381 
	C940.325134,47.762901 943.186523,49.109520 943.340942,52.776562 
	C935.001892,42.671108 923.361938,37.643734 912.649292,30.963478 
	C910.887329,33.391792 911.402344,35.624264 911.399658,37.713860 
	C911.365417,64.369057 911.375732,91.024307 911.375671,117.679543 
	C911.375610,131.840134 911.392578,146.000763 911.365723,160.161285 
	C911.360229,163.052551 911.589233,165.619568 915.433899,165.613983 
	C925.762695,165.598969 936.091431,165.608566 946.420227,165.614639 
	C948.690552,165.615982 950.485535,164.860458 950.528442,162.309372 
	C950.625854,156.528870 950.559082,150.745605 950.559082,144.757660 
	C947.332336,144.967255 944.599609,146.124298 940.809570,144.103439 
	C942.000427,143.549484 942.579529,143.086975 943.200928,143.020905 
	C949.684631,142.331299 951.666565,138.577789 950.697449,132.507935 
	C950.193909,129.354324 952.170715,128.595901 954.950012,128.613678 
	C965.111877,128.678696 975.275085,128.558014 985.436218,128.665726 
	C988.673828,128.700043 990.991577,127.832481 993.095276,125.098351 
	C998.946350,117.494034 1004.937073,109.970085 1011.311707,102.805023 
	C1015.772339,97.791222 1018.821716,91.427071 1025.000000,88.000000 
M601.440613,194.442795 
	C602.161621,193.325058 602.222412,192.139206 601.187988,191.291534 
	C599.984619,190.305389 598.931274,191.206635 598.173401,192.084717 
	C594.316650,196.553360 590.274902,200.916931 588.614807,206.198227 
	C592.533569,202.622879 596.768799,198.758728 601.440613,194.442795 
z"/>
<path fill="#000000" opacity="1.000000" stroke="none" 
	d="
M283.531342,1.000000 
	C284.998749,19.593983 284.149872,38.199936 284.330139,56.799526 
	C284.366669,60.569557 284.829834,64.397224 283.666321,69.018890 
	C279.068207,65.060120 274.817047,61.537903 270.721466,57.843246 
	C263.695374,51.504990 256.835815,44.980915 249.760147,38.699505 
	C247.193329,36.420815 247.673401,33.625370 247.640808,30.860950 
	C247.552048,23.333719 246.395126,22.335791 239.177322,23.935596 
	C237.372025,24.335739 235.616257,24.674028 233.377487,23.810240 
	C235.686462,21.437965 238.176514,20.524092 241.236649,20.592024 
	C245.701965,20.691149 247.988327,18.713705 247.682831,13.897491 
	C247.430511,9.920105 247.720383,5.908327 247.885010,1.455894 
	C259.687561,1.000000 271.375122,1.000000 283.531342,1.000000 
z"/>
<path fill="#000000" opacity="1.000000" stroke="none" 
	d="
M432.531342,1.000000 
	C429.363770,6.905359 423.360718,10.450177 418.618225,15.258314 
	C412.217316,21.747860 405.119568,27.545658 398.420074,33.747505 
	C396.092010,35.902660 393.738220,37.945980 389.769684,39.986797 
	C389.769684,26.880711 389.769684,14.397065 389.884827,1.456709 
	C404.020905,1.000000 418.041779,1.000000 432.531342,1.000000 
z"/>
<path fill="#000000" opacity="1.000000" stroke="none" 
	d="
M1025.000000,36.531319 
	C1015.638428,28.709108 1006.016357,20.686871 997.048767,11.989749 
	C993.657593,8.700798 988.783325,6.685182 987.040649,1.364282 
	C999.591309,1.000000 1012.182617,1.000000 1025.000000,1.000000 
	C1025.000000,12.686590 1025.000000,24.374638 1025.000000,36.531319 
z"/>
<path fill="#000000" opacity="1.000000" stroke="none" 
	d="
M21.536278,42.428082 
	C14.353427,39.280827 7.946854,34.850601 1.290323,30.176830 
	C1.000000,29.250000 1.000000,28.500000 1.000000,27.375000 
	C6.590728,30.374111 12.097934,33.900730 17.820221,37.034622 
	C19.672314,38.048954 20.741798,39.540489 22.008873,41.459862 
	C21.823021,42.125366 21.679649,42.276726 21.536278,42.428082 
z"/>
<path fill="#000000" opacity="1.000000" stroke="none" 
	d="
M164.750000,1.000000 
	C167.884781,6.467743 165.134888,12.046403 165.089325,17.545219 
	C165.058334,21.284988 163.963135,24.994211 165.086258,28.794672 
	C165.527771,30.288673 164.845123,31.661034 162.888260,33.342628 
	C162.541595,22.302122 162.277405,11.953564 163.863708,1.306449 
	C164.000000,1.000000 164.500000,1.000000 164.750000,1.000000 
z"/>
<path fill="#000000" opacity="1.000000" stroke="none" 
	d="
M867.750000,1.000000 
	C869.549805,11.738063 866.364624,22.299534 866.655029,33.010468 
	C864.695923,22.544136 865.231812,12.085844 866.866943,1.312655 
	C867.000000,1.000000 867.500000,1.000000 867.750000,1.000000 
z"/>
<path fill="#000000" opacity="1.000000" stroke="none" 
	d="
M595.600037,1.000000 
	C592.835754,4.568246 590.073853,8.575950 585.203857,11.026834 
	C585.105225,5.902836 590.172607,4.969984 591.859985,1.303491 
	C593.066711,1.000000 594.133362,1.000000 595.600037,1.000000 
z"/>
<path fill="#000000" opacity="1.000000" stroke="none" 
	d="
M960.990356,42.622292 
	C969.167786,41.261936 974.215637,45.046494 979.745422,50.066814 
	C985.035339,54.869434 987.230713,59.568325 986.465942,66.362762 
	C986.178223,68.919617 985.903381,71.161499 984.105957,73.187981 
	C981.468323,76.161728 979.099548,79.372894 976.590393,82.461945 
	C974.241089,85.354286 971.358582,86.732903 967.462708,86.436951 
	C963.156555,86.109833 958.806702,86.276566 954.478210,86.355148 
	C951.724670,86.405144 950.586487,85.208885 950.630371,82.472855 
	C950.710388,77.477951 951.391418,72.330650 950.437744,67.521324 
	C949.184204,61.198936 951.018799,55.120991 950.542236,48.977600 
	C950.146851,43.881134 951.986572,41.870155 957.008667,42.600235 
	C958.150269,42.766182 959.336792,42.623154 960.990356,42.622292 
z"/>
<path fill="#000000" opacity="1.000000" stroke="none" 
	d="
M34.471104,53.580532 
	C35.676075,54.898296 36.881046,56.216061 38.400009,57.877205 
	C40.493279,54.102463 39.502270,50.438927 39.569454,46.981014 
	C39.631729,43.775837 40.815849,42.349361 44.005333,42.639126 
	C44.334724,42.669048 44.670002,42.637123 45.002460,42.629868 
	C61.440159,42.271034 62.399513,42.677345 73.800179,54.828205 
	C75.912552,57.079578 76.244713,69.073975 74.053123,71.980598 
	C71.266617,75.676254 68.232483,79.184982 65.312004,82.779900 
	C63.185860,85.397049 60.591816,86.674316 57.080860,86.420128 
	C53.441952,86.156677 49.768875,86.380402 46.110893,86.361916 
	C39.660511,86.329315 39.660294,86.320053 39.625389,79.634361 
	C39.621918,78.969269 39.629333,78.304092 39.622925,77.639046 
	C39.545815,69.636032 41.106575,61.202549 33.871887,54.565327 
	C34.178864,53.866707 34.324982,53.723618 34.471104,53.580532 
z"/>
<path fill="#000000" opacity="1.000000" stroke="none" 
	d="
M33.813438,54.224289 
	C28.805500,51.528084 25.681828,46.918758 21.719250,42.703354 
	C21.679649,42.276726 21.823021,42.125366 22.181576,41.747078 
	C26.995527,44.644169 31.317257,48.053963 34.331879,53.268105 
	C34.324982,53.723618 34.178864,53.866707 33.813438,54.224289 
z"/>
<path fill="#000000" opacity="1.000000" stroke="none" 
	d="
M77.197861,5.163128 
	C75.093361,8.752430 72.751686,12.099646 68.155502,15.311360 
	C70.232513,10.211230 72.217865,6.831408 76.324814,4.679181 
	C76.782394,4.727632 76.901100,4.852055 77.197861,5.163128 
z"/>
<path fill="#000000" opacity="1.000000" stroke="none" 
	d="
M785.779114,157.281342 
	C782.182312,155.733994 778.258911,154.653503 776.010254,150.161728 
	C780.724976,150.588730 783.297607,153.438461 786.217468,156.275116 
	C786.261780,156.719177 786.123962,156.879837 785.779114,157.281342 
z"/>
<path fill="#000000" opacity="1.000000" stroke="none" 
	d="
M881.811951,117.219299 
	C876.036316,112.996132 871.235901,107.983902 869.897400,100.376717 
	C873.933289,105.599289 877.969238,110.821854 882.182251,116.323914 
	C882.237732,116.740295 882.116150,116.877182 881.811951,117.219299 
z"/>
<path fill="#000000" opacity="1.000000" stroke="none" 
	d="
M880.836304,134.208374 
	C877.012085,131.326126 872.304626,129.415649 870.109741,124.759232 
	C874.984131,125.975060 878.007874,129.586853 881.295227,133.324127 
	C881.287354,133.764954 881.158447,133.891632 880.836304,134.208374 
z"/>
<path fill="#000000" opacity="1.000000" stroke="none" 
	d="
M164.901672,99.307358 
	C170.222198,101.539047 171.370941,107.221283 174.355957,111.519318 
	C168.950134,109.337761 167.490326,104.009964 164.901672,99.307358 
z"/>
<path fill="#000000" opacity="1.000000" stroke="none" 
	d="
M166.952713,125.199295 
	C166.324554,124.245956 165.850830,123.575096 166.430374,122.318092 
	C169.175156,125.069885 173.385574,125.934158 174.763824,130.840683 
	C170.988541,130.008514 169.243561,127.488983 166.952713,125.199295 
z"/>
</svg>